<?xml version="1.0" standalone="no"?>
<!DOCTYPE svg PUBLIC "-//W3C//DTD SVG 20010904//EN"
 "http://www.w3.org/TR/2001/REC-SVG-20010904/DTD/svg10.dtd">
<svg version="1.0" xmlns="http://www.w3.org/2000/svg"
 width="512.000000pt" height="512.000000pt" viewBox="0 0 512.000000 512.000000"
 preserveAspectRatio="xMidYMid meet">
<metadata>
Created by potrace 1.16, written by Peter Selinger 2001-2019
</metadata>
<g transform="translate(0.000000,512.000000) scale(0.100000,-0.100000)"
fill="#000000" stroke="none">
<path d="M2989 5087 c-25 -7 -58 -23 -75 -34 -16 -12 -409 -403 -874 -870
-465 -466 -830 -834 -812 -818 63 56 31 8 -44 -65 -140 -138 -219 -262 -272
-425 -107 -327 -44 -681 169 -950 26 -33 227 -239 446 -457 356 -354 403 -398
443 -409 149 -41 286 31 327 171 20 67 8 142 -32 202 -14 21 -24 42 -21 46 2
4 -165 179 -373 387 -209 210 -389 400 -404 425 -37 64 -58 125 -67 195 -7 58
-7 59 -9 14 -1 -52 26 -140 65 -208 15 -26 191 -212 408 -431 l380 -385 -391
390 c-426 425 -435 436 -469 582 -29 125 -2 277 71 387 18 28 185 202 371 386
l339 335 -347 -350 c-288 -291 -351 -360 -375 -410 -39 -78 -55 -141 -50 -190
l4 -40 1 45 c1 25 8 66 16 91 36 119 52 138 460 547 215 216 386 390 379 388
-7 -3 -13 -2 -13 2 0 4 230 237 511 517 556 555 559 558 559 665 0 105 -80
216 -174 241 -63 17 -167 6 -207 -21 -19 -13 -403 -390 -854 -839 l-820 -816
825 828 c575 577 838 834 867 848 53 26 152 28 208 5 44 -19 107 -75 136 -121
10 -16 19 -25 19 -19 0 15 -49 76 -87 108 -63 53 -156 74 -234 53z"/>
<path d="M1133 3278 c-275 -293 -363 -682 -238 -1054 62 -185 136 -286 394
-544 113 -113 143 -140 65 -60 -237 245 -277 289 -322 353 -218 310 -242 730
-61 1066 46 86 92 150 168 234 29 31 51 57 48 57 -2 0 -26 -24 -54 -52z"/>
</g>
</svg>
