<?xml version="1.0" standalone="no"?>
<!DOCTYPE svg PUBLIC "-//W3C//DTD SVG 20010904//EN"
 "http://www.w3.org/TR/2001/REC-SVG-20010904/DTD/svg10.dtd">
<svg version="1.0" xmlns="http://www.w3.org/2000/svg"
 width="512.000000pt" height="512.000000pt" viewBox="0 0 512.000000 512.000000"
 preserveAspectRatio="xMidYMid meet">

<g transform="translate(0.000000,512.000000) scale(0.100000,-0.100000)"
fill="#000000" stroke="none">
<path d="M2975 5054 c-47 -14 -103 -68 -951 -917 -495 -496 -924 -933 -953
-972 -67 -89 -133 -225 -167 -340 -54 -186 -42 -434 29 -623 72 -193 91 -216
557 -685 301 -304 437 -434 469 -449 128 -62 294 15 336 156 19 63 19 80 -1
147 -15 51 -35 73 -424 464 -237 239 -418 429 -434 456 -91 159 -97 339 -15
500 27 54 79 112 325 359 1248 1256 1516 1529 1531 1560 23 48 28 131 12 187
-19 68 -88 136 -158 157 -66 19 -91 19 -156 0z"/>
</g>
</svg>
